# xmcd CD database file
#
# Track frame offsets:
#	150
#	16875
#	33084
#	52640
#	72279
#	98538
#	121261
#	138325
#	163181
#	185074
#	205103
#	220371
#
# Disc length: 3118 seconds
#
# Revision: 0
# Processed by: cddbd v1.5.2PL0 Copyright (c) Steve Scherf et al.
# Submitted via: CDex 1.70beta2
#
DISCID=9d0c2c0c
DTITLE=Helen Schneider - Like A Woman
DYEAR=2007
DGENRE=Blues
TTITLE0=(You Make Me Feel Like) A Natural Woman
TTITLE1=I Caught The Blues From Someone Else
TTITLE2=Born In Time
TTITLE3=Slow Down
TTITLE4=Just Like A Woman
TTITLE5=Bang The Drum Slowly
TTITLE6=House Where Nobody Lives
TTITLE7=Essence
TTITLE8=By The Rivers Dark
TTITLE9=If Loving You Is Wrong
TTITLE10=Such A Night
TTITLE11=Through The Dark
EXTD=YEAR: 2007
EXTT0=
EXTT1=
EXTT2=
EXTT3=
EXTT4=
EXTT5=
EXTT6=
EXTT7=
EXTT8=
EXTT9=
EXTT10=
EXTT11=
PLAYORDER=
